<svg width="12" height="14" viewBox="0 0 12 14" fill="none" xmlns="http://www.w3.org/2000/svg">
<path fill-rule="evenodd" clip-rule="evenodd" d="M6 3.09831C4.60868 3.09831 3.4808 4.2262 3.4808 5.61751C3.4808 7.00883 4.60868 8.13672 6 8.13672C7.39131 8.13672 8.5192 7.00883 8.5192 5.61751C8.5192 4.2262 7.39131 3.09831 6 3.09831ZM4.83256 5.61751C4.83256 4.97276 5.35524 4.45008 6 4.45008C6.64475 4.45008 7.16743 4.97276 7.16743 5.61751C7.16743 6.26227 6.64475 6.78495 6 6.78495C5.35524 6.78495 4.83256 6.26227 4.83256 5.61751Z" fill="black"/>
<path fill-rule="evenodd" clip-rule="evenodd" d="M6 0.333336C4.59855 0.333336 3.2545 0.89006 2.26352 1.88104C1.27254 2.87201 0.71582 4.21606 0.71582 5.61751C0.71582 7.93461 1.99507 9.93358 3.18583 11.303C3.51686 11.6836 3.84736 12.0229 4.15267 12.3149H1.85253C1.47925 12.3149 1.17665 12.6175 1.17665 12.9908C1.17665 13.3641 1.47925 13.6667 1.85253 13.6667H10.1475C10.5207 13.6667 10.8233 13.3641 10.8233 12.9908C10.8233 12.6175 10.5207 12.3149 10.1475 12.3149H7.84733C8.15264 12.0229 8.48313 11.6836 8.81417 11.303C10.0049 9.93358 11.2842 7.93461 11.2842 5.61751C11.2842 4.21606 10.7275 2.87201 9.73648 1.88104C8.7455 0.89006 7.40145 0.333336 6 0.333336ZM3.21936 2.83688C3.95683 2.09941 4.95706 1.6851 6 1.6851C7.04294 1.6851 8.04316 2.09941 8.78063 2.83688C9.5181 3.57435 9.93241 4.57457 9.93241 5.61751C9.93241 7.4479 8.9075 9.13556 7.79412 10.4159C7.24568 11.0467 6.69551 11.5557 6.28231 11.907C6.17849 11.9952 6.08363 12.0732 6 12.1404C5.91636 12.0732 5.8215 11.9952 5.71769 11.907C5.30448 11.5557 4.75431 11.0467 4.20588 10.4159C3.0925 9.13556 2.06759 7.4479 2.06759 5.61751C2.06759 4.57457 2.48189 3.57435 3.21936 2.83688Z" fill="black"/>
</svg>
