<svg width="234" height="80" viewBox="0 0 234 80" fill="none" xmlns="http://www.w3.org/2000/svg">
<g clip-path="url(#clip0_4214_11083)">
<path d="M64.6613 3.68285C63.7796 3.05381 62.3925 3.16134 61.6183 3.87639L56.5861 8.5108C55.7742 9.24736 55.8387 10.371 56.699 11.0162C56.699 11.0162 64.5162 16.7259 64.5323 29.0538C64.543 40.7527 56.3334 47.4893 56.3334 47.4893C55.5 48.1721 55.4624 49.328 56.2473 50.0538L61.2689 54.613C62.0592 55.3441 63.4409 55.4302 64.328 54.828C64.328 54.828 76.1022 46.785 76.0861 29.0914C76.0699 11.5054 64.6613 3.68285 64.6613 3.68285Z" fill="#FF3D00"/>
<path d="M118 22.5914C117.048 20.5646 115.048 19.0484 112.043 19.0538C109.022 19.0538 107.032 20.5753 106.102 22.6022C105.527 23.8441 105.328 24.7635 105.258 26.2581L118.806 26.2473C118.747 24.7527 118.548 23.8334 118 22.5914ZM106.183 32.0861C106.183 32.0861 105.296 32.0162 105.296 32.7205C105.296 36.8011 108.328 39.6936 113.086 39.6882C116.613 39.6882 118.113 38.8334 120.263 37.2205C120.758 36.8549 121.29 36.5108 121.683 36.9409C121.952 37.2527 125.726 40.699 125.726 40.699C126.199 41.1344 126.07 41.656 125.575 42.0968C125.048 42.5215 119.457 46.8818 113.022 46.8871C104.597 46.8925 96.5161 43.2258 96.5054 29.4086C96.4946 18.2689 102.774 11.9785 112.032 11.9732C121.957 11.9624 127.591 18.8979 127.597 28.2689V30.6398C127.597 31.6022 126.806 32.0538 126.156 32.0592L106.177 32.0807L106.183 32.0861Z" fill="white"/>
<path d="M205.796 22.5054C204.849 20.4785 202.86 18.9624 199.844 18.9677C196.828 18.9677 194.844 20.4892 193.882 22.5161C193.344 23.7581 193.124 24.6774 193.07 26.172L206.64 26.1613C206.554 24.6667 206.339 23.7419 205.79 22.5054M193.968 32C193.968 32 193.107 31.9301 193.107 32.6344C193.107 36.7151 196.134 39.6075 200.887 39.6021C204.425 39.6021 205.909 38.7473 208.07 37.1344C208.543 36.7688 209.086 36.4194 209.489 36.8548C209.79 37.1667 213.538 40.6129 213.538 40.6129C214.005 41.0484 213.855 41.5699 213.36 42.0107C212.855 42.4355 207.247 46.7957 200.817 46.8011C192.387 46.8064 184.317 43.1398 184.306 29.3226C184.296 18.1828 190.575 11.8925 199.833 11.8871C209.763 11.8763 215.387 18.8064 215.398 28.1828V30.5538C215.398 31.5161 214.613 31.9731 213.973 31.9731L193.968 31.9946V32Z" fill="white"/>
<path d="M153.21 46.4462C152.548 46.4462 152.027 45.9354 152.027 45.2849L152.011 26.9946C152.011 23.9946 151.28 19.6129 146.108 19.6129C143.306 19.6129 140.161 21.172 140.167 25.8225L140.183 45.2903C140.183 45.9408 139.645 46.4516 138.989 46.4516H132.457C131.79 46.4569 131.263 45.9462 131.263 45.2957L131.231 13.5107C131.231 12.8763 131.758 12.3279 132.425 12.3279H138.763C139.409 12.3225 139.946 12.8655 139.952 13.5V14.2957C139.952 14.9408 140.392 15.1827 140.941 14.8602C140.941 14.8602 144.156 11.9301 148.839 11.9247C152.392 11.9247 155.29 13.0322 157.274 14.9354C160.167 17.6774 160.914 20.8817 160.919 24.6129L160.941 45.258C160.941 45.9086 160.403 46.4193 159.753 46.4193" fill="white"/>
<path d="M174.591 13.3226H179.758C180.398 13.3173 180.93 13.8226 180.93 14.4624V19.6882C180.936 20.3334 180.409 20.8549 179.763 20.8549H175.801C175.161 20.8549 174.634 21.3979 174.634 22.0269L174.645 34.9839C174.645 35.6398 174.806 36.6667 175 37.285C175 37.285 175.618 39.2474 177.737 39.2474H179.78C180.419 39.2474 180.952 39.7689 180.952 40.4033V45.2689C180.957 45.9194 180.43 46.4302 179.785 46.4302H176.102C168.839 46.4409 166.511 41.5377 166.505 36.6775L166.489 20.9678V18.613L166.484 14.4839V12.1291L166.479 7.77962C166.479 7.12909 166.995 6.61833 167.651 6.61296H173.468C174.097 6.60758 174.581 7.11833 174.581 7.76887" fill="white"/>
<path d="M228.64 46.3763C221.312 46.3817 218.979 41.4839 218.973 36.6236L218.946 7.73654C218.946 7.07525 219.468 6.5645 220.108 6.5645H225.93C226.57 6.55912 227.086 7.06987 227.086 7.73116L227.113 34.9355C227.113 35.5914 227.269 36.6183 227.441 37.2419C227.441 37.2419 228 39.1989 230.258 39.1935H232.505C233.161 39.1935 233.699 39.715 233.699 40.3494V45.215C233.704 45.8656 233.172 46.3763 232.511 46.3763" fill="white"/>
<path d="M35.3172 17.414C33.7366 14.0914 30.4678 11.6022 25.5269 11.6075C20.5592 11.6075 17.3118 14.1075 15.7527 17.4355C14.8387 19.4946 14.5161 20.9946 14.4086 23.4624L36.6721 23.4409C36.5538 20.9785 36.2151 19.4731 35.3172 17.4194M15.8979 33.0323C15.8979 33.0323 14.4355 32.8871 14.4355 34.0807C14.4409 40.7473 19.4355 45.5 27.2366 45.4946C33.043 45.4893 35.5162 44.1075 39.0215 41.4785C39.8495 40.8602 40.6936 40.2957 41.3871 41.0108C41.8334 41.5054 47.9893 47.1828 47.9893 47.1828C48.7688 47.9032 48.5592 48.7742 47.7151 49.4678C46.8925 50.1559 37.7097 57.3226 27.1613 57.3334C13.3065 57.3441 0.0215242 51.3387 1.88449e-05 28.6398C-0.0161102 10.3495 10.3226 0.0161461 25.5161 1.71126e-05C41.8172 -0.0161119 51.0538 11.371 51.0699 26.7581V30.6559C51.0699 32.2258 49.7903 32.9946 48.7258 32.9946L15.8925 33.0269L15.8979 33.0323Z" fill="white"/>
<path d="M110.011 64.8119V65.8656C110.011 66.0861 109.903 66.1936 109.683 66.1936L99.043 66.2043C98.957 66.2043 98.9086 66.2474 98.9086 66.3334C98.9516 67.5431 99.0215 68.3226 99.1075 68.6721C99.3495 69.6613 99.8656 70.4409 100.661 71.0108C101.452 71.5807 102.462 71.8656 103.694 71.8656C104.618 71.8656 105.425 71.656 106.129 71.2366C106.828 70.8172 107.382 70.2259 107.774 69.457C107.903 69.2581 108.059 69.2151 108.237 69.3226L109.522 70.0807C109.699 70.1882 109.742 70.3441 109.656 70.5431C109.108 71.5968 108.285 72.4301 107.188 73.0323C106.091 73.6398 104.828 73.9409 103.403 73.9409C101.844 73.9194 100.538 73.5484 99.4839 72.8226C98.4301 72.0968 97.6667 71.0914 97.2043 69.7957C96.8065 68.742 96.6075 67.2259 96.6075 65.2474C96.6075 64.3226 96.6237 63.5753 96.6559 62.9893C96.6882 62.4086 96.7688 61.8871 96.9032 61.4248C97.2742 60 98.0269 58.8549 99.1559 57.9947C100.285 57.1345 101.651 56.7097 103.253 56.7043C105.253 56.7043 106.79 57.2043 107.866 58.2151C108.941 59.2258 109.613 60.6506 109.882 62.4947C109.968 63.1076 110.011 63.8764 110.016 64.8011M100.57 59.5914C99.8549 60.1506 99.3925 60.9033 99.1721 61.8495C99.043 62.3119 98.957 63.0592 98.914 64.0914C98.914 64.1775 98.957 64.2205 99.0484 64.2205H107.581C107.667 64.2151 107.715 64.1667 107.715 64.0807C107.672 63.0914 107.602 62.3871 107.516 61.9732C107.274 60.9839 106.785 60.199 106.048 59.6183C105.312 59.0377 104.382 58.7474 103.263 58.7474C102.188 58.7474 101.29 59.0323 100.581 59.5914" fill="white"/>
<path d="M135.425 58.199C136.382 59.1882 136.86 60.5377 136.86 62.2527L136.871 73.2904C136.871 73.5108 136.758 73.6183 136.543 73.6183H134.892C134.672 73.6183 134.564 73.5108 134.564 73.2904L134.554 62.7151C134.554 61.5054 134.204 60.5484 133.516 59.8334C132.823 59.1237 131.914 58.7635 130.796 58.7635C129.629 58.7635 128.694 59.1183 127.978 59.8226C127.263 60.5269 126.909 61.4731 126.909 62.6559L126.919 73.2957C126.919 73.5162 126.806 73.6237 126.591 73.6237H124.914C124.694 73.6237 124.586 73.5162 124.586 73.2957L124.575 62.7205C124.575 61.5108 124.231 60.5538 123.554 59.8387C122.871 59.1291 121.957 58.7688 120.817 58.7688C119.651 58.7688 118.726 59.1237 118.038 59.828C117.344 60.5323 117 61.4731 117 62.6613L117.011 73.3011C117.011 73.5215 116.898 73.6291 116.683 73.6291H115.005C114.785 73.6291 114.677 73.5215 114.677 73.3011L114.661 57.2904C114.661 57.0699 114.769 56.9624 114.989 56.9624H116.667C116.887 56.9624 116.995 57.0699 116.995 57.2904V58.6076C116.995 58.6506 117.011 58.6775 117.043 58.6882C117.075 58.699 117.113 58.6882 117.156 58.6398C117.64 58 118.258 57.5269 119.016 57.2043C119.774 56.8871 120.613 56.7258 121.538 56.7258C122.677 56.7258 123.656 56.9516 124.473 57.414C125.285 57.8764 125.903 58.543 126.323 59.4248C126.366 59.5323 126.419 59.5323 126.484 59.4248C126.968 58.5215 127.645 57.8495 128.527 57.3979C129.403 56.9463 130.403 56.7205 131.521 56.7205C133.172 56.7205 134.473 57.2097 135.43 58.199" fill="white"/>
<path d="M155.344 65.2634C155.344 67.0215 155.204 68.3817 154.919 69.3494C154.527 70.758 153.806 71.8602 152.763 72.6612C151.72 73.4623 150.409 73.8655 148.828 73.8655C147.968 73.8655 147.177 73.6989 146.457 73.3548C145.731 73.0161 145.129 72.5268 144.645 71.8924C144.602 71.8494 144.565 71.8333 144.532 71.844C144.5 71.8548 144.484 71.8817 144.484 71.9247V79.6666C144.495 79.8871 144.382 79.9946 144.161 79.9946H142.479C142.258 79.9946 142.151 79.8871 142.151 79.6666L142.129 57.2634C142.129 57.043 142.237 56.9354 142.457 56.9354H144.14C144.36 56.9354 144.468 57.043 144.468 57.2634V58.6451C144.468 58.6881 144.484 58.715 144.516 58.7258C144.548 58.7365 144.586 58.7258 144.634 58.6774C145.118 58.043 145.715 57.5483 146.43 57.1935C147.145 56.844 147.941 56.6666 148.817 56.6666C150.355 56.6666 151.645 57.0591 152.688 57.8494C153.731 58.6397 154.452 59.715 154.849 61.0752C155.177 62.129 155.344 63.5215 155.349 65.258M152.796 67.7795C152.919 67.1774 152.979 66.3333 152.979 65.258C152.979 64.2258 152.93 63.4193 152.844 62.8387C152.758 62.258 152.602 61.7365 152.382 61.2742C152.118 60.4838 151.651 59.8602 150.979 59.3978C150.306 58.9354 149.511 58.7043 148.591 58.7096C147.715 58.7096 146.978 58.9408 146.387 59.4032C145.796 59.8655 145.355 60.4785 145.07 61.2473C144.871 61.6881 144.731 62.2043 144.64 62.7957C144.554 63.3871 144.511 64.215 144.511 65.2688C144.511 66.3225 144.559 67.1505 144.645 67.758C144.737 68.3602 144.887 68.8924 145.108 69.3548C145.371 70.1021 145.806 70.6989 146.414 71.1505C147.016 71.6021 147.737 71.8279 148.57 71.8225C149.446 71.8225 150.21 71.6021 150.86 71.1612C151.505 70.7204 151.973 70.1397 152.258 69.4139C152.5 68.9301 152.677 68.3871 152.801 67.7795" fill="white"/>
<path d="M168.683 57.1774C168.86 57.2634 168.925 57.4086 168.882 57.6075L168.522 59.2204C168.457 59.4409 168.312 59.5054 168.091 59.4194C167.72 59.2634 167.29 59.1882 166.806 59.1882L166.376 59.2204C165.231 59.2634 164.29 59.6882 163.543 60.4946C162.796 61.2957 162.425 62.3118 162.425 63.543L162.436 73.2634C162.436 73.4839 162.323 73.5914 162.108 73.5914H160.43C160.21 73.5914 160.102 73.4839 160.102 73.2634L160.086 57.2527C160.086 57.0323 160.194 56.9247 160.414 56.9247H162.091C162.312 56.9247 162.419 57.0323 162.419 57.2527V59.2634C162.419 59.328 162.441 59.3656 162.468 59.3763C162.5 59.3871 162.527 59.371 162.554 59.328C163.011 58.5161 163.602 57.8817 164.312 57.4301C165.027 56.9785 165.855 56.7527 166.801 56.7527C167.527 56.7527 168.151 56.8925 168.677 57.1774" fill="white"/>
<path d="M184.763 64.7366V65.7903C184.763 66.0107 184.656 66.1183 184.435 66.1183L173.796 66.129C173.71 66.129 173.667 66.172 173.667 66.2581C173.71 67.4677 173.78 68.2473 173.866 68.5968C174.108 69.586 174.624 70.3656 175.419 70.9355C176.21 71.5054 177.22 71.7903 178.452 71.7903C179.376 71.7903 180.188 71.5806 180.887 71.1613C181.591 70.7419 182.14 70.1505 182.532 69.3817C182.661 69.1828 182.817 69.1398 182.995 69.2473L184.28 70.0054C184.457 70.1129 184.5 70.2688 184.414 70.4677C183.866 71.5215 183.043 72.3548 181.946 72.957C180.849 73.5645 179.586 73.8656 178.161 73.8656C176.602 73.8441 175.296 73.4731 174.242 72.7473C173.188 72.0215 172.425 71.0161 171.968 69.7204C171.57 68.6667 171.371 67.1505 171.371 65.172C171.371 64.2473 171.387 63.5 171.419 62.914C171.452 62.3333 171.532 61.8118 171.667 61.3495C172.038 59.9247 172.79 58.7796 173.919 57.9194C175.048 57.0591 176.414 56.6344 178.022 56.629C180.022 56.629 181.559 57.129 182.634 58.1398C183.71 59.1505 184.382 60.5753 184.645 62.4193C184.731 63.0323 184.78 63.8011 184.78 64.7258M175.339 59.5107C174.624 60.0699 174.156 60.8226 173.941 61.7688C173.812 62.2312 173.72 62.9785 173.677 64.0107C173.677 64.0968 173.72 64.1398 173.812 64.1398H182.344C182.43 64.1344 182.479 64.086 182.479 64C182.435 63.0107 182.366 62.3118 182.28 61.8925C182.038 60.9032 181.548 60.1183 180.812 59.5376C180.075 58.957 179.145 58.6667 178.027 58.6667C176.952 58.6667 176.054 58.9462 175.344 59.5107" fill="white"/>
<path d="M191.608 73.1344C190.651 72.742 189.914 72.2151 189.398 71.5538C188.882 70.8979 188.624 70.1613 188.624 69.3441V68.9463C188.624 68.7258 188.731 68.6183 188.952 68.6183H190.532C190.753 68.6183 190.86 68.7258 190.86 68.9463V69.2097C190.86 69.9355 191.242 70.5646 192 71.1022C192.758 71.6398 193.71 71.9086 194.849 71.9086C195.989 71.9086 196.914 71.6506 197.618 71.1291C198.323 70.6129 198.672 69.957 198.672 69.1667C198.672 68.6183 198.489 68.1667 198.124 67.8172C197.758 67.4678 197.333 67.1936 196.839 66.9947C196.344 66.7957 195.581 66.543 194.548 66.2366C193.317 65.8871 192.306 65.5377 191.516 65.1828C190.726 64.8334 190.059 64.3441 189.522 63.7205C188.984 63.0968 188.715 62.3011 188.71 61.3334C188.71 59.9301 189.258 58.8065 190.355 57.9732C191.452 57.1344 192.903 56.7205 194.704 56.7151C195.914 56.7151 196.984 56.9086 197.919 57.3065C198.855 57.699 199.57 58.242 200.081 58.9355C200.586 59.6291 200.839 60.4033 200.839 61.2581V61.3549C200.839 61.5753 200.731 61.6828 200.511 61.6828H198.962C198.742 61.6828 198.634 61.5753 198.634 61.3549V61.2581C198.634 60.5108 198.274 59.8871 197.559 59.3818C196.844 58.8764 195.882 58.6237 194.677 58.6291C193.559 58.6291 192.656 58.8549 191.978 59.3065C191.296 59.7581 190.957 60.3764 190.957 61.1667C190.957 61.914 191.285 62.4839 191.946 62.8818C192.608 63.2742 193.629 63.6721 195.011 64.0646C196.285 64.4355 197.317 64.785 198.108 65.1183C198.898 65.4463 199.581 65.9248 200.151 66.5484C200.72 67.1721 201.005 67.9947 201.011 69.0054C201.011 70.4355 200.452 71.5753 199.333 72.4355C198.215 73.2957 196.731 73.7205 194.887 73.7258C193.656 73.7258 192.565 73.5323 191.608 73.1344Z" fill="white"/>
<path d="M215.597 58.1183C216.672 59.129 217.215 60.4678 217.215 62.1344L217.226 73.2043C217.226 73.4247 217.113 73.5323 216.898 73.5323H215.22C215 73.5323 214.892 73.4247 214.892 73.2043V71.8548C214.892 71.8118 214.876 71.7796 214.839 71.7581C214.806 71.7366 214.769 71.7473 214.726 71.7903C214.177 72.4516 213.462 72.9516 212.586 73.2903C211.71 73.629 210.731 73.8011 209.656 73.8065C208.097 73.8065 206.79 73.414 205.731 72.6237C204.677 71.8333 204.151 70.629 204.145 69C204.145 67.3548 204.742 66.0484 205.935 65.0968C207.134 64.1398 208.796 63.6613 210.925 63.6613H214.747C214.833 63.6613 214.882 63.6129 214.882 63.5269V62.2742C214.882 61.1559 214.564 60.2688 213.941 59.6237C213.312 58.9785 212.344 58.6505 211.021 58.6559C209.968 58.6559 209.113 58.8602 208.452 59.2688C207.796 59.6774 207.387 60.2419 207.237 60.9678C207.172 61.1882 207.038 61.285 206.844 61.2634L205.065 61.0323C204.823 60.9893 204.726 60.9032 204.769 60.7688C204.941 59.5376 205.602 58.5376 206.742 57.7688C207.882 57 209.312 56.6129 211.021 56.6129C213 56.6129 214.527 57.1129 215.602 58.1237M213.473 70.828C214.414 70.1774 214.887 69.3065 214.887 68.2043V65.6344C214.887 65.5484 214.839 65.5054 214.753 65.5054H211.296C209.844 65.5054 208.683 65.8065 207.806 66.4032C206.93 67 206.489 67.8226 206.489 68.8764C206.489 69.8441 206.823 70.5753 207.495 71.0645C208.167 71.5591 209.038 71.8065 210.113 71.8011C211.409 71.8011 212.527 71.4731 213.473 70.828Z" fill="white"/>
<path d="M224.29 73.1022C223.333 72.7097 222.597 72.1829 222.081 71.5216C221.564 70.8603 221.306 70.1291 221.306 69.3119V68.9194C221.306 68.699 221.414 68.5915 221.634 68.5915H223.215C223.435 68.5915 223.543 68.699 223.548 68.9194V69.1828C223.548 69.9087 223.93 70.5377 224.688 71.0753C225.446 71.613 226.398 71.8818 227.538 71.8818C228.677 71.8818 229.602 71.6237 230.306 71.1076C231.011 70.5915 231.36 69.9355 231.36 69.1452C231.36 68.5968 231.177 68.1452 230.812 67.7958C230.446 67.4463 230.021 67.1721 229.527 66.9732C229.032 66.7742 228.269 66.5269 227.237 66.2151C226.005 65.8656 224.995 65.5162 224.204 65.1667C223.414 64.8173 222.747 64.328 222.21 63.699C221.672 63.0753 221.403 62.2796 221.398 61.3119C221.398 59.9087 221.946 58.785 223.043 57.9517C224.14 57.1183 225.591 56.699 227.392 56.6936C228.597 56.6936 229.672 56.8872 230.602 57.285C231.538 57.6775 232.258 58.2205 232.763 58.914C233.269 59.6076 233.521 60.3818 233.521 61.2366V61.3334C233.521 61.5538 233.414 61.6613 233.193 61.6613H231.645C231.425 61.6613 231.317 61.5538 231.317 61.3334V61.2366C231.317 60.4893 230.957 59.8656 230.242 59.3603C229.527 58.8549 228.564 58.6022 227.36 58.6076C226.242 58.6076 225.339 58.8334 224.661 59.285C223.978 59.7366 223.64 60.3549 223.64 61.1506C223.64 61.8979 223.968 62.4678 224.629 62.8603C225.285 63.2527 226.312 63.6506 227.693 64.0431C228.968 64.414 230 64.7689 230.79 65.0968C231.581 65.4248 232.263 65.9033 232.833 66.5269C233.403 67.1506 233.688 67.9678 233.693 68.9786C233.693 70.4087 233.134 71.5484 232.016 72.4087C230.898 73.2635 229.414 73.6936 227.57 73.699C226.339 73.699 225.247 73.5054 224.29 73.1076" fill="white"/>
</g>
<defs>
<clipPath id="clip0_4214_11083">
<rect width="233.71" height="80" fill="white"/>
</clipPath>
</defs>
</svg>
