<svg width="240" height="85" viewBox="0 0 240 85" fill="none" xmlns="http://www.w3.org/2000/svg">
<g clip-path="url(#clip0_6276_871)">
<path d="M233.621 1.17261C233.141 0.838505 232.399 0.89419 231.975 1.28398L229.227 3.78052C228.798 4.17495 228.83 4.77821 229.301 5.11695C229.301 5.11695 233.533 8.20282 233.533 14.8386C233.533 21.4744 229.077 24.7551 229.077 24.7551C228.625 25.1217 228.611 25.7435 229.04 26.1333L231.76 28.5927C232.184 28.9779 232.936 29.0382 233.411 28.7087C233.411 28.7087 239.803 24.3885 239.803 14.8618C239.803 5.33505 233.621 1.17261 233.621 1.17261Z" fill="#F50702"/>
<path d="M172.298 54.5138H220.577C222.299 54.5138 223.693 55.9013 223.693 57.6136V77.4095C223.693 79.1218 222.299 80.5093 220.577 80.5093H172.298V54.5138Z" fill="#34E49E"/>
<path d="M24.5549 13.1309H9.9111C9.64053 13.1309 9.5099 13.2655 9.5099 13.53V17.9198C9.5099 18.1843 9.64519 18.3189 9.9111 18.3189H18.8401C19.4746 18.3189 19.7918 18.6344 19.7918 19.2655V25.3537C19.7918 25.9848 19.4746 26.3004 18.8401 26.3004H9.9111C9.64053 26.3004 9.5099 26.4349 9.5099 26.6994V31.5904C9.5099 31.8549 9.64519 31.9895 9.9111 31.9895H24.5549C25.1893 31.9895 25.5066 32.305 25.5066 32.9361V39.0707C25.5066 39.7018 25.1893 40.0174 24.5549 40.0174H1.03341C0.398953 40.0174 0.0817261 39.7018 0.0817261 39.0707V6.04502C0.0817261 5.41392 0.398953 5.09837 1.03341 5.09837H24.5549C25.1893 5.09837 25.5066 5.41392 25.5066 6.04502V12.1796C25.5066 12.8107 25.1893 13.1263 24.5549 13.1263V13.1309Z" fill="white"/>
<path d="M28.6694 39.0707V6.04502C28.6694 5.41392 28.9867 5.09837 29.6211 5.09837H37.0946C37.6311 5.09837 38.0136 5.31647 38.2469 5.74803L44.3162 15.5764C44.3815 15.711 44.4841 15.7759 44.6148 15.7759C44.7454 15.7759 44.848 15.711 44.918 15.5764L50.9873 5.74803C51.2206 5.31647 51.6077 5.09837 52.1396 5.09837H59.6131C60.2475 5.09837 60.5648 5.41392 60.5648 6.04502V39.0707C60.5648 39.7018 60.2475 40.0174 59.6131 40.0174H52.0883C51.4538 40.0174 51.1366 39.7018 51.1366 39.0707V21.4604C51.1366 21.2609 51.0759 21.1449 50.9593 21.1124C50.8427 21.0799 50.7354 21.1449 50.6327 21.3119L47.5211 26.4489C47.2879 26.8804 46.9007 27.0985 46.3688 27.0985H42.856C42.3195 27.0985 41.937 26.8851 41.7037 26.4489L38.5921 21.3119C38.4941 21.1774 38.3915 21.1124 38.2889 21.1124C38.1536 21.1124 38.0883 21.2284 38.0883 21.4604V39.0707C38.0883 39.7018 37.771 40.0174 37.1366 40.0174H29.6118C28.9773 40.0174 28.6601 39.7018 28.6601 39.0707H28.6694Z" fill="white"/>
<path d="M86.0456 6.52308C87.851 7.46972 89.2458 8.82008 90.2348 10.5649C91.2192 12.3097 91.7137 14.3143 91.7137 16.5788C91.7137 18.8433 91.1959 20.7691 90.1602 22.4675C89.1245 24.1659 87.669 25.4791 85.7983 26.4072C83.9276 27.3399 81.7677 27.804 79.3278 27.804H74.1635C73.8976 27.804 73.7624 27.9385 73.7624 28.203V39.0801C73.7624 39.7112 73.4451 40.0268 72.8107 40.0268H65.2859C64.6514 40.0268 64.3342 39.7112 64.3342 39.0801V6.04512C64.3342 5.41403 64.6514 5.09848 65.2859 5.09848H79.7803C82.1549 5.09848 84.2448 5.5718 86.0502 6.51844L86.0456 6.52308ZM81.2032 19.3399C81.9543 18.6902 82.3321 17.8364 82.3321 16.7691C82.3321 15.7018 81.9543 14.7923 81.2032 14.1241C80.4521 13.4605 79.4538 13.1264 78.2175 13.1264H74.1542C73.8883 13.1264 73.753 13.2609 73.753 13.5254V19.9106C73.753 20.1798 73.8883 20.3097 74.1542 20.3097H78.2175C79.4538 20.3097 80.4474 19.9849 81.2032 19.3352V19.3399Z" fill="white"/>
<path d="M100.816 38.95C98.6931 37.8363 97.0464 36.2725 95.8754 34.2586C94.7045 32.2446 94.1213 29.9105 94.1213 27.2469V17.8687C94.1213 15.2747 94.7045 12.9777 95.8754 10.9823C97.0464 8.98697 98.6931 7.44171 100.816 6.34194C102.938 5.24216 105.388 4.6946 108.163 4.6946C110.939 4.6946 113.44 5.24216 115.562 6.34194C117.685 7.43707 119.332 8.98697 120.503 10.9823C121.673 12.9777 122.257 15.2747 122.257 17.8687V27.2469C122.257 29.9105 121.673 32.2446 120.503 34.2586C119.332 36.2725 117.685 37.8363 115.562 38.95C113.44 40.0637 110.972 40.6206 108.163 40.6206C105.355 40.6206 102.938 40.0637 100.816 38.95ZM111.546 31.2145C112.399 30.3003 112.824 29.0799 112.824 27.5486V17.7712C112.824 16.2399 112.399 15.0195 111.546 14.1053C110.692 13.1912 109.563 12.7318 108.159 12.7318C106.754 12.7318 105.677 13.1912 104.823 14.1053C103.969 15.0195 103.545 16.2446 103.545 17.7712V27.5486C103.545 29.0799 103.969 30.3003 104.823 31.2145C105.677 32.1286 106.787 32.588 108.159 32.588C109.53 32.588 110.692 32.1333 111.546 31.2145Z" fill="white"/>
<path d="M130.78 39.224L120.95 6.14718C120.918 6.04974 120.899 5.93373 120.899 5.79915C120.899 5.33511 121.184 5.09845 121.753 5.09845H129.879C130.449 5.09845 130.798 5.3676 130.934 5.8966L135.048 21.66C135.114 21.8271 135.207 21.9106 135.324 21.9106C135.44 21.9106 135.515 21.8271 135.548 21.66L139.359 5.94301C139.527 5.37688 139.877 5.09381 140.413 5.09381H146.282C146.851 5.09381 147.201 5.36296 147.336 5.89196L151.348 21.6554C151.414 21.8225 151.507 21.906 151.623 21.906C151.74 21.906 151.815 21.8225 151.847 21.6554L155.561 5.93837C155.696 5.37224 156.046 5.08917 156.615 5.08917H164.742C165.073 5.08917 165.311 5.18198 165.442 5.36296C165.577 5.54393 165.609 5.80379 165.54 6.1379L156.764 39.2147C156.629 39.7483 156.279 40.0128 155.71 40.0128H148.036C147.434 40.0128 147.084 39.7298 146.982 39.1636L143.52 22.6484C143.455 22.4814 143.371 22.3932 143.268 22.3747C143.17 22.3561 143.1 22.4489 143.068 22.6484L140.007 39.1636C139.909 39.7298 139.574 40.0128 139.004 40.0128H131.881C131.312 40.0128 130.943 39.7483 130.775 39.2147L130.78 39.224Z" fill="white"/>
<path d="M191.165 13.131H176.521C176.25 13.131 176.12 13.2656 176.12 13.5301V17.9199C176.12 18.1844 176.255 18.319 176.521 18.319H185.45C186.084 18.319 186.401 18.6345 186.401 19.2656V25.3538C186.401 25.9849 186.084 26.3005 185.45 26.3005H176.521C176.25 26.3005 176.12 26.435 176.12 26.6995V31.5905C176.12 31.855 176.255 31.9896 176.521 31.9896H191.165C191.799 31.9896 192.116 32.3051 192.116 32.9362V39.0709C192.116 39.7019 191.799 40.0175 191.165 40.0175H167.643C167.009 40.0175 166.691 39.7019 166.691 39.0709V6.04512C166.691 5.41403 167.009 5.09848 167.643 5.09848H191.165C191.799 5.09848 192.116 5.41403 192.116 6.04512V12.1797C192.116 12.8108 191.799 13.1264 191.165 13.1264V13.131Z" fill="white"/>
<path d="M212.829 39.3213L207.413 26.899C207.348 26.6994 207.18 26.5973 206.909 26.5973H205.104C204.833 26.5973 204.703 26.7319 204.703 26.9964V39.0707C204.703 39.7018 204.385 40.0174 203.751 40.0174H196.226C195.592 40.0174 195.274 39.7018 195.274 39.0707V6.04502C195.274 5.41392 195.592 5.09837 196.226 5.09837H211.22C213.492 5.09837 215.493 5.56241 217.214 6.49513C218.936 7.42785 220.275 8.73181 221.226 10.4116C222.178 12.0915 222.654 14.0265 222.654 16.2214C222.654 18.4163 222.127 20.2818 221.073 21.9105C220.018 23.5393 218.558 24.7551 216.683 25.5533C216.449 25.6553 216.384 25.8224 216.482 26.0544L222.603 38.9269C222.668 39.0615 222.705 39.2285 222.705 39.4281C222.705 39.8271 222.435 40.0267 221.903 40.0267H213.93C213.394 40.0267 213.03 39.7946 212.825 39.3306L212.829 39.3213ZM204.707 13.53V19.066C204.707 19.3305 204.843 19.4651 205.109 19.4651H209.671C210.739 19.4651 211.612 19.1727 212.279 18.5927C212.946 18.0126 213.282 17.2562 213.282 16.3235C213.282 15.3908 212.946 14.588 212.279 14.0033C211.612 13.4233 210.739 13.1309 209.671 13.1309H205.109C204.838 13.1309 204.707 13.2655 204.707 13.53Z" fill="white"/>
<path d="M3.8135 78.412C1.64422 76.7414 0.557251 74.5094 0.557251 71.7112V70.0407C0.557251 69.7066 0.725195 69.5349 1.06575 69.5349H2.64255C2.98311 69.5349 3.15105 69.7066 3.15105 70.0407V71.5581C3.15105 73.6509 4.0141 75.3354 5.74485 76.6161C7.4756 77.8969 9.84548 78.5373 12.8638 78.5373C15.6769 78.5373 17.8275 77.9572 19.3203 76.7925C20.8131 75.6277 21.5596 74.0222 21.5596 71.9618C21.5596 70.7136 21.2283 69.6277 20.5659 68.6996C19.9034 67.7715 18.8865 66.9038 17.5149 66.0964C16.1434 65.2889 14.2027 64.3608 11.6929 63.3168C9.04774 62.2031 7.05574 61.275 5.71686 60.5325C4.37797 59.79 3.30033 58.8573 2.4886 57.7251C1.67688 56.5974 1.26635 55.1357 1.26635 53.3492C1.26635 50.5835 2.22269 48.4535 4.14005 46.9501C6.05275 45.4512 8.70719 44.6995 12.0987 44.6995C15.7935 44.6995 18.6905 45.544 20.7945 47.2285C22.8938 48.9129 23.9481 51.1728 23.9481 54.0081V55.1728C23.9481 55.5116 23.7801 55.6787 23.4396 55.6787H21.7602C21.4196 55.6787 21.2517 55.5116 21.2517 55.1728V54.1612C21.2517 52.0359 20.4399 50.3236 18.8118 49.029C17.1837 47.7296 14.8978 47.08 11.9494 47.08C9.3743 47.08 7.39163 47.609 6.00143 48.6716C4.61123 49.7343 3.91613 51.261 3.91613 53.2471C3.91613 54.5974 4.23802 55.6926 4.8818 56.5325C5.52559 57.377 6.44928 58.1102 7.65288 58.732C8.85647 59.3585 10.7132 60.1752 13.2183 61.1868C15.7282 62.1984 17.7528 63.1683 19.297 64.0963C20.8411 65.0244 22.0494 66.1103 22.9311 67.3585C23.8128 68.6068 24.2513 70.1057 24.2513 71.8597C24.2513 74.5929 23.2343 76.7832 21.2003 78.4352C19.1664 80.0872 16.3206 80.9131 12.6585 80.9131C8.99643 80.9131 5.9781 80.0779 3.80883 78.4073L3.8135 78.412Z" fill="white"/>
<path d="M37.6494 79.5257C35.872 78.5977 34.4864 77.2937 33.5068 75.6046C32.5224 73.9201 32.0326 71.9804 32.0326 69.7855V45.609C32.0326 45.2703 32.2005 45.1032 32.5411 45.1032H34.2205C34.5611 45.1032 34.729 45.2703 34.729 45.609V69.8876C34.729 72.4862 35.5687 74.5744 37.2482 76.1614C38.9276 77.7485 41.1202 78.5373 43.8353 78.5373C46.5504 78.5373 48.785 77.7438 50.4458 76.1614C52.1065 74.5744 52.9369 72.4862 52.9369 69.8876V45.609C52.9369 45.2703 53.1049 45.1032 53.4454 45.1032H55.1249C55.4654 45.1032 55.6334 45.2703 55.6334 45.609V69.7855C55.6334 71.9758 55.1435 73.9155 54.1592 75.6046C53.1749 77.2891 51.794 78.5977 50.0166 79.5257C48.2392 80.4538 46.1772 80.9179 43.84 80.9179C41.5028 80.9179 39.4408 80.4538 37.6634 79.5257H37.6494Z" fill="white"/>
<path d="M89.3898 45.1033H91.1205C91.4611 45.1033 91.629 45.2704 91.629 45.6092V80.0038C91.629 80.3426 91.4564 80.5096 91.1205 80.5096H89.4411C89.1005 80.5096 88.9326 80.3426 88.9326 80.0038V50.3145C88.9326 50.2124 88.8999 50.1567 88.83 50.1382C88.76 50.1196 88.7087 50.1614 88.676 50.2635L79.7283 64.0223C79.5604 64.2589 79.3551 64.3749 79.1172 64.3749H78.2542C78.0162 64.3749 77.811 64.2589 77.643 64.0223L68.5927 50.3145C68.5601 50.2124 68.5087 50.1799 68.4388 50.2124C68.3688 50.2449 68.3361 50.3145 68.3361 50.4166V80.0084C68.3361 80.3472 68.1682 80.5142 67.8276 80.5142H66.1482C65.8077 80.5142 65.6397 80.3472 65.6397 80.0084V45.6138C65.6397 45.275 65.8077 45.108 66.1482 45.108H67.9303C68.1682 45.108 68.3688 45.224 68.5414 45.4607L78.5061 60.6348C78.5387 60.6673 78.59 60.6858 78.66 60.6858C78.73 60.6858 78.7766 60.6673 78.814 60.6348L88.7786 45.4607C88.9466 45.224 89.1518 45.108 89.3898 45.108V45.1033Z" fill="white"/>
<path d="M125.801 45.1032H127.532C127.872 45.1032 128.04 45.2703 128.04 45.609V80.0037C128.04 80.3424 127.868 80.5095 127.532 80.5095H125.852C125.512 80.5095 125.344 80.3424 125.344 80.0037V50.3144C125.344 50.2123 125.311 50.1566 125.241 50.1381C125.171 50.1195 125.12 50.1613 125.087 50.2634L116.14 64.0222C115.972 64.2588 115.766 64.3748 115.529 64.3748H114.666C114.428 64.3748 114.222 64.2588 114.054 64.0222L105.004 50.3144C104.971 50.2123 104.92 50.1798 104.85 50.2123C104.78 50.2448 104.748 50.3144 104.748 50.4165V80.0083C104.748 80.3471 104.58 80.5141 104.239 80.5141H102.56C102.219 80.5141 102.051 80.3471 102.051 80.0083V45.6137C102.051 45.2749 102.219 45.1079 102.56 45.1079H104.342C104.58 45.1079 104.78 45.2239 104.953 45.4606L114.917 60.6347C114.95 60.6671 115.001 60.6857 115.071 60.6857C115.141 60.6857 115.188 60.6671 115.225 60.6347L125.19 45.4606C125.358 45.2239 125.563 45.1079 125.801 45.1079V45.1032Z" fill="white"/>
<path d="M138.458 80.0037V45.609C138.458 45.2703 138.626 45.1032 138.966 45.1032H140.646C140.986 45.1032 141.154 45.2703 141.154 45.609V80.0037C141.154 80.3424 140.986 80.5095 140.646 80.5095H138.966C138.626 80.5095 138.458 80.3424 138.458 80.0037Z" fill="white"/>
<path d="M172.732 45.609V46.9733C172.732 47.3121 172.564 47.4791 172.224 47.4791H162.054C161.918 47.4791 161.848 47.5487 161.848 47.6833V80.0037C161.848 80.3424 161.681 80.5095 161.34 80.5095H159.661C159.32 80.5095 159.152 80.3424 159.152 80.0037V47.6833C159.152 47.5487 159.082 47.4791 158.947 47.4791H149.285C148.945 47.4791 148.777 47.3121 148.777 46.9733V45.609C148.777 45.2703 148.945 45.1032 149.285 45.1032H172.219C172.56 45.1032 172.728 45.2703 172.728 45.609H172.732Z" fill="white"/>
<path d="M177.448 66.3561V59.9988C177.448 59.8781 177.509 59.8178 177.63 59.8178H179.081C179.203 59.8178 179.263 59.8781 179.263 59.9988V64.9176C179.263 64.9686 179.287 64.9965 179.343 64.9965H182.258C182.38 64.9965 182.44 65.0568 182.44 65.1774V66.3607C182.44 66.4814 182.38 66.5417 182.258 66.5417H177.63C177.509 66.5417 177.448 66.4814 177.448 66.3607V66.3561Z" fill="black"/>
<path d="M189.559 66.3562V59.9989C189.559 59.8782 189.62 59.8179 189.741 59.8179H191.192C191.313 59.8179 191.374 59.8782 191.374 59.9989V66.3562C191.374 66.4769 191.313 66.5372 191.192 66.5372H189.741C189.62 66.5372 189.559 66.4769 189.559 66.3562Z" fill="black"/>
<path d="M198.885 66.3562V59.9989C198.885 59.8782 198.945 59.8179 199.067 59.8179H200.504C200.606 59.8179 200.681 59.8597 200.728 59.9432L201.894 61.8365C201.908 61.8597 201.926 61.8736 201.95 61.8736C201.973 61.8736 201.996 61.8597 202.006 61.8365L203.172 59.9432C203.219 59.8597 203.293 59.8179 203.396 59.8179H204.833C204.954 59.8179 205.015 59.8782 205.015 59.9989V66.3562C205.015 66.4769 204.954 66.5372 204.833 66.5372H203.387C203.265 66.5372 203.205 66.4769 203.205 66.3562V62.9641C203.205 62.927 203.195 62.9038 203.172 62.8945C203.149 62.8898 203.13 62.8991 203.111 62.9316L202.514 63.92C202.468 64.0035 202.393 64.0453 202.29 64.0453H201.614C201.511 64.0453 201.437 64.0035 201.39 63.92L200.793 62.9316C200.774 62.9084 200.756 62.8945 200.737 62.8945C200.714 62.8945 200.7 62.9177 200.7 62.9641V66.3562C200.7 66.4769 200.639 66.5372 200.518 66.5372H199.067C198.945 66.5372 198.885 66.4769 198.885 66.3562Z" fill="black"/>
<path d="M216.51 66.3841L216.318 65.6926C216.304 65.6462 216.276 65.623 216.23 65.623H214.219C214.172 65.623 214.144 65.6462 214.13 65.6926L213.939 66.3841C213.911 66.4862 213.846 66.5372 213.738 66.5372H212.176C212.11 66.5372 212.064 66.5186 212.036 66.4815C212.008 66.4444 212.003 66.3934 212.022 66.3284L214.032 59.971C214.065 59.8689 214.13 59.8179 214.233 59.8179H216.22C216.323 59.8179 216.393 59.8689 216.421 59.971L218.432 66.3284C218.432 66.3284 218.441 66.3701 218.441 66.3934C218.441 66.4908 218.385 66.5372 218.278 66.5372H216.715C216.603 66.5372 216.538 66.4862 216.51 66.3841ZM214.56 64.1752C214.56 64.2216 214.583 64.2402 214.625 64.2402H215.824C215.852 64.2402 215.87 64.2309 215.88 64.217C215.894 64.2031 215.894 64.1799 215.889 64.1567L215.269 61.9386C215.264 61.9061 215.25 61.8922 215.227 61.8922C215.203 61.8922 215.185 61.9061 215.175 61.9386L214.56 64.1567V64.1752Z" fill="black"/>
<path d="M178.843 74.6209H182.015C182.08 74.6209 182.113 74.6534 182.113 74.7184V74.9829C182.113 75.0479 182.08 75.0803 182.015 75.0803H178.246C178.18 75.0803 178.148 75.0479 178.148 74.9829V74.7091C178.148 74.6627 178.162 74.6256 178.185 74.5931C178.465 74.2497 178.717 73.9342 178.941 73.6465C179.165 73.3588 179.361 73.1082 179.538 72.8854L180.429 71.7532C181.045 70.9597 181.348 70.3332 181.348 69.8738C181.348 69.5026 181.222 69.2056 180.97 68.9782C180.718 68.7508 180.392 68.6395 179.986 68.6395C179.58 68.6395 179.253 68.7508 179.011 68.9782C178.764 69.2056 178.647 69.5026 178.652 69.8738V70.1847C178.652 70.2497 178.619 70.2822 178.554 70.2822H178.232C178.166 70.2822 178.134 70.2497 178.134 70.1847V69.8135C178.138 69.3262 178.316 68.9318 178.656 68.6302C178.997 68.3286 179.44 68.1754 179.986 68.1754C180.364 68.1754 180.695 68.245 180.979 68.3889C181.264 68.5327 181.483 68.7323 181.642 68.9875C181.801 69.2427 181.875 69.5351 181.875 69.8599C181.875 70.4214 181.563 71.1035 180.933 71.9156C180.48 72.5003 179.841 73.3031 179.011 74.324L178.815 74.5699C178.796 74.6024 178.801 74.6163 178.834 74.6163L178.843 74.6209Z" fill="black"/>
<path d="M189.311 74.6581C188.948 74.31 188.766 73.846 188.766 73.2706V70.0734C188.766 69.4933 188.948 69.0339 189.311 68.6905C189.675 68.3471 190.156 68.1754 190.758 68.1754C191.359 68.1754 191.854 68.3471 192.222 68.6952C192.591 69.0432 192.778 69.5026 192.778 70.0734V73.2706C192.778 73.8506 192.591 74.31 192.222 74.6581C191.854 75.0061 191.364 75.1778 190.758 75.1778C190.151 75.1778 189.675 75.0061 189.311 74.6581ZM191.849 74.324C192.12 74.0687 192.255 73.73 192.255 73.3077V70.0409C192.255 69.6186 192.12 69.2798 191.849 69.0153C191.579 68.7508 191.215 68.6255 190.758 68.6255C190.3 68.6255 189.96 68.7555 189.689 69.0153C189.419 69.2752 189.288 69.614 189.288 70.0409V73.3077C189.288 73.73 189.423 74.0687 189.689 74.324C189.955 74.5792 190.314 74.7091 190.758 74.7091C191.201 74.7091 191.579 74.5792 191.849 74.324Z" fill="black"/>
<path d="M200.33 74.6209H203.502C203.568 74.6209 203.6 74.6534 203.6 74.7184V74.9829C203.6 75.0479 203.568 75.0803 203.502 75.0803H199.733C199.668 75.0803 199.635 75.0479 199.635 74.9829V74.7091C199.635 74.6627 199.649 74.6256 199.672 74.5931C199.952 74.2497 200.204 73.9342 200.428 73.6465C200.652 73.3588 200.848 73.1082 201.025 72.8854L201.916 71.7532C202.532 70.9597 202.835 70.3332 202.835 69.8738C202.835 69.5026 202.709 69.2056 202.457 68.9782C202.206 68.7508 201.879 68.6395 201.473 68.6395C201.067 68.6395 200.741 68.7508 200.498 68.9782C200.251 69.2056 200.134 69.5026 200.139 69.8738V70.1847C200.139 70.2497 200.106 70.2822 200.041 70.2822H199.719C199.654 70.2822 199.621 70.2497 199.621 70.1847V69.8135C199.626 69.3262 199.803 68.9318 200.144 68.6302C200.484 68.3286 200.927 68.1754 201.473 68.1754C201.851 68.1754 202.182 68.245 202.467 68.3889C202.751 68.5327 202.971 68.7323 203.129 68.9875C203.288 69.2427 203.363 69.5351 203.363 69.8599C203.363 70.4214 203.05 71.1035 202.42 71.9156C201.968 72.5003 201.329 73.3031 200.498 74.324L200.302 74.5699C200.284 74.6024 200.288 74.6163 200.321 74.6163L200.33 74.6209Z" fill="black"/>
<path d="M217.073 72.9969C217.073 73.3217 217.05 73.5862 217.003 73.7857C216.901 74.208 216.686 74.5421 216.36 74.7881C216.038 75.034 215.646 75.1593 215.189 75.1593C214.731 75.1593 214.363 75.0433 214.046 74.8066C213.728 74.5746 213.514 74.2591 213.402 73.8693C213.355 73.7208 213.332 73.5862 213.323 73.4702C213.323 73.4052 213.355 73.3727 213.421 73.3727H213.752C213.817 73.3727 213.85 73.4052 213.85 73.4702L213.887 73.6744C213.957 73.9853 214.106 74.2359 214.335 74.4168C214.559 74.5978 214.843 74.6906 215.184 74.6906C215.524 74.6906 215.818 74.5932 216.052 74.3983C216.285 74.2034 216.434 73.9389 216.5 73.6001C216.532 73.4702 216.551 73.2707 216.551 72.9969C216.551 72.7741 216.532 72.5514 216.5 72.324C216.453 71.9992 216.313 71.7486 216.08 71.5723C215.846 71.3959 215.552 71.3078 215.198 71.3078C214.876 71.3078 214.601 71.3774 214.358 71.5166C214.12 71.6558 213.962 71.846 213.882 72.0873C213.864 72.143 213.826 72.1755 213.775 72.1755H213.421C213.355 72.1755 213.323 72.143 213.323 72.0781V68.3565C213.323 68.2915 213.355 68.259 213.421 68.259H216.681C216.747 68.259 216.779 68.2915 216.779 68.3565V68.621C216.779 68.6859 216.747 68.7184 216.681 68.7184H213.878C213.85 68.7184 213.84 68.7323 213.84 68.7555L213.831 71.3681C213.831 71.3681 213.836 71.3913 213.845 71.3913C213.854 71.3913 213.868 71.3913 213.878 71.3774C214.027 71.215 214.223 71.085 214.466 70.9922C214.708 70.8994 214.965 70.853 215.24 70.853C215.692 70.853 216.075 70.9644 216.397 71.1825C216.719 71.4052 216.915 71.7161 216.994 72.1291C217.041 72.3936 217.064 72.686 217.064 72.9969H217.073Z" fill="black"/>
</g>
<defs>
<clipPath id="clip0_6276_871">
<rect width="239.734" height="83.6282" fill="white" transform="translate(0.132935 0.904709)"/>
</clipPath>
</defs>
</svg>
