<svg width="14" height="14" viewBox="0 0 14 14" fill="none" xmlns="http://www.w3.org/2000/svg">
<path fill-rule="evenodd" clip-rule="evenodd" d="M1.66683 7.00004C1.66683 4.05452 4.05464 1.66671 7.00016 1.66671C9.94568 1.66671 12.3335 4.05452 12.3335 7.00004C12.3335 9.94556 9.94568 12.3334 7.00016 12.3334C4.05464 12.3334 1.66683 9.94556 1.66683 7.00004ZM7.00016 0.333374C3.31826 0.333374 0.333496 3.31814 0.333496 7.00004C0.333496 10.6819 3.31826 13.6667 7.00016 13.6667C10.6821 13.6667 13.6668 10.6819 13.6668 7.00004C13.6668 3.31814 10.6821 0.333374 7.00016 0.333374ZM7.66683 3.50004C7.66683 3.13185 7.36835 2.83337 7.00016 2.83337C6.63197 2.83337 6.3335 3.13185 6.3335 3.50004V7.00004C6.3335 7.36823 6.63197 7.66671 7.00016 7.66671H10.5002C10.8684 7.66671 11.1668 7.36823 11.1668 7.00004C11.1668 6.63185 10.8684 6.33337 10.5002 6.33337H7.66683V3.50004Z" fill="black"/>
</svg>
