<svg xmlns="http://www.w3.org/2000/svg" viewBox="0 0 76.09 57.33"><defs><style>.cls-1{fill:#002eff;}.cls-2{fill:#ff3d00;}</style></defs><g id="Capa_2" data-name="Capa 2"><g id="Capa_1-2" data-name="Capa 1"><path class="cls-1" d="M35.32,17.41c-1.58-3.32-4.85-5.81-9.79-5.8s-8.22,2.5-9.78,5.83a14.69,14.69,0,0,0-1.34,6l22.26,0a15.06,15.06,0,0,0-1.35-6M15.9,33s-1.46-.14-1.46,1c0,6.67,5,11.42,12.8,11.41,5.8,0,8.28-1.38,11.78-4,.83-.63,1.67-1.18,2.37-.47.44.5,6.6,6.17,6.6,6.17.78.72.57,1.59-.27,2.29s-10,7.85-20.56,7.86C13.31,57.34,0,51.34,0,28.64,0,10.35,10.32,0,25.52,0c16.3,0,25.53,11.37,25.55,26.76v3.9A2.3,2.3,0,0,1,48.73,33L15.89,33Z"/><path class="cls-2" d="M64.66,3.68a2.54,2.54,0,0,0-3,.2l-5,4.63A1.57,1.57,0,0,0,56.7,11s7.82,5.71,7.83,18a25.22,25.22,0,0,1-8.2,18.44,1.65,1.65,0,0,0-.08,2.56l5,4.56a2.6,2.6,0,0,0,3.06.22s11.77-8,11.76-25.74S64.66,3.68,64.66,3.68Z"/></g></g></svg>