<svg width="22" height="20" viewBox="0 0 22 20" fill="none" xmlns="http://www.w3.org/2000/svg">
<path d="M20.6919 2.36313C20.5572 2.25804 20.4003 2.18503 20.2331 2.14961C20.066 2.1142 19.8929 2.11733 19.7272 2.15875L14.1312 3.5575L8.50625 0.745005C8.26599 0.624793 7.99064 0.594531 7.73 0.659692L1.73 2.15969C1.48625 2.21995 1.26967 2.36002 1.11473 2.5576C0.959792 2.75518 0.875403 2.99892 0.875 3.25V16.75C0.875026 16.9209 0.914008 17.0896 0.988986 17.2433C1.06396 17.3969 1.17297 17.5314 1.30771 17.6366C1.44246 17.7418 1.59941 17.8149 1.76663 17.8504C1.93386 17.8858 2.10697 17.8827 2.27281 17.8413L7.86875 16.4425L13.4938 19.255C13.734 19.3752 14.0094 19.4055 14.27 19.3403L20.27 17.8403C20.5137 17.7801 20.7303 17.64 20.8853 17.4424C21.0402 17.2448 21.1246 17.0011 21.125 16.75V3.25C21.125 3.07898 21.0859 2.91021 21.0109 2.75653C20.9358 2.60285 20.8267 2.46831 20.6919 2.36313ZM9.125 3.57063L12.875 5.44563V16.4294L9.125 14.5544V3.57063ZM3.125 4.13313L6.875 3.19563V14.3716L3.125 15.3091V4.13313ZM18.875 15.8716L15.125 16.8091V5.62844L18.875 4.69094V15.8716Z" fill="white"/>
</svg>
