<svg width="14" height="15" viewBox="0 0 14 15" fill="none" xmlns="http://www.w3.org/2000/svg">
<path fill-rule="evenodd" clip-rule="evenodd" d="M10.6668 1.5C10.6668 1.13181 10.3684 0.833336 10.0002 0.833336C9.63197 0.833336 9.3335 1.13181 9.3335 1.5V1.83334H4.66683V1.5C4.66683 1.13181 4.36835 0.833336 4.00016 0.833336C3.63197 0.833336 3.3335 1.13181 3.3335 1.5V1.83334H2.00016C1.35583 1.83334 0.833496 2.35567 0.833496 3V5.5V13C0.833496 13.6443 1.35583 14.1667 2.00016 14.1667H12.0002C12.6445 14.1667 13.1668 13.6443 13.1668 13V5.5V3C13.1668 2.35567 12.6445 1.83334 12.0002 1.83334H10.6668V1.5ZM11.8335 4.83334V3.16667H10.6668V3.5C10.6668 3.86819 10.3684 4.16667 10.0002 4.16667C9.63197 4.16667 9.3335 3.86819 9.3335 3.5V3.16667H4.66683V3.5C4.66683 3.86819 4.36835 4.16667 4.00016 4.16667C3.63197 4.16667 3.3335 3.86819 3.3335 3.5V3.16667H2.16683V4.83334H11.8335ZM2.16683 6.16667H11.8335V12.8333H2.16683V6.16667Z" fill="black"/>
</svg>
