<svg width="14" height="14" viewBox="0 0 14 14" fill="none" xmlns="http://www.w3.org/2000/svg">
<path fill-rule="evenodd" clip-rule="evenodd" d="M10.5079 0.528575C10.7796 0.268226 11.22 0.268226 11.4917 0.528575L13.5787 2.52857C13.8503 2.78892 13.8503 3.21103 13.5787 3.47138L12.0141 4.97073L12.0134 4.97138L12.0128 4.97203L7.3178 9.47138C7.18734 9.59641 7.01039 9.66665 6.8259 9.66665H4.73894C4.35474 9.66665 4.04329 9.36817 4.04329 8.99998V6.99998C4.04329 6.82317 4.11658 6.6536 4.24704 6.52857L8.9425 2.02876L8.94269 2.02858L8.94288 2.0284L10.5079 0.528575ZM12.103 2.99998L11.5215 3.55717L10.4184 2.49998L10.9998 1.94279L12.103 2.99998ZM5.43459 7.27612L9.43459 3.44279L10.5377 4.49998L6.53775 8.33331H5.43459V7.27612ZM7.34763 2.16665H1.78242V11.8333H11.8694V6.49998C11.8694 6.13179 12.1808 5.83331 12.565 5.83331C12.9492 5.83331 13.2607 6.13179 13.2607 6.49998V12C13.2607 12.3094 13.1324 12.6061 12.9041 12.8249C12.6758 13.0437 12.3662 13.1666 12.0433 13.1666H1.6085C1.28563 13.1666 0.975985 13.0437 0.747679 12.8249C0.519374 12.6061 0.391113 12.3094 0.391113 12V1.99998C0.391113 1.69056 0.519374 1.39381 0.747679 1.17502C0.975984 0.95623 1.28563 0.833313 1.6085 0.833313H7.34763C7.73183 0.833313 8.04329 1.13179 8.04329 1.49998C8.04329 1.86817 7.73183 2.16665 7.34763 2.16665Z" fill="white"/>
</svg>
