<svg width="18" height="18" viewBox="0 0 18 18" fill="none" xmlns="http://www.w3.org/2000/svg">
<path fill-rule="evenodd" clip-rule="evenodd" d="M8.99967 0.583008C4.35128 0.583008 0.583008 4.35128 0.583008 8.99967C0.583008 13.6481 4.35128 17.4163 8.99967 17.4163C13.6481 17.4163 17.4163 13.6481 17.4163 8.99967C17.4163 4.35128 13.6481 0.583008 8.99967 0.583008ZM2.41634 8.99967C2.41634 5.3638 5.3638 2.41634 8.99967 2.41634C12.6355 2.41634 15.583 5.3638 15.583 8.99967C15.583 12.3233 13.12 15.0718 9.9197 15.5192V11.1663H11.4997C12.0059 11.1663 12.4163 10.7559 12.4163 10.2497C12.4163 9.74341 12.0059 9.33301 11.4997 9.33301H9.9197V8.74485C9.9197 7.83176 10.1671 7.35312 10.4508 7.1109C10.7362 6.86719 11.2643 6.68682 12.215 6.82825C12.7158 6.90275 13.1821 6.5572 13.2566 6.05645C13.3311 5.5557 12.9855 5.08937 12.4848 5.01488C11.2468 4.83071 10.1012 4.99867 9.26033 5.71663C8.41765 6.43612 8.08636 7.53217 8.08636 8.74485V9.33301H6.49967C5.99341 9.33301 5.58301 9.74341 5.58301 10.2497C5.58301 10.7559 5.99341 11.1663 6.49967 11.1663H8.08636V15.5202C4.88279 15.0756 2.41634 12.3256 2.41634 8.99967Z" fill="white"/>
</svg>
