<svg width="22" height="20" viewBox="0 0 22 20" fill="none" xmlns="http://www.w3.org/2000/svg">
<path fill-rule="evenodd" clip-rule="evenodd" d="M8.2742 3.29296C7.50391 2.88279 6.61531 2.75216 5.75956 2.92331C4.90382 3.09446 4.13381 3.55681 3.58054 4.2317C3.02726 4.90658 2.7249 5.75232 2.7249 6.625C2.7249 9.30621 4.73531 11.9288 7.04826 14.0105C8.17147 15.0214 9.2997 15.8455 10.1494 16.4176C10.4835 16.6426 10.7729 16.8275 10.9999 16.9684C11.2269 16.8275 11.5163 16.6426 11.8504 16.4176C12.7001 15.8455 13.8283 15.0214 14.9515 14.0105C17.2645 11.9288 19.2749 9.30621 19.2749 6.625C19.2749 5.75232 18.9725 4.90658 18.4193 4.2317C17.866 3.55681 17.096 3.09446 16.2402 2.92331C15.3845 2.75216 14.4959 2.88279 13.7256 3.29296C12.9553 3.70314 12.3509 4.36752 12.0153 5.17308C11.8445 5.58299 11.444 5.85 10.9999 5.85C10.5558 5.85 10.1553 5.58299 9.98452 5.17308C9.64887 4.36752 9.04449 3.70314 8.2742 3.29296ZM10.9999 18.25C10.4624 19.2098 10.4622 19.2096 10.4618 19.2094L10.461 19.209L10.4588 19.2077L10.4517 19.2037L10.4276 19.19C10.4071 19.1783 10.378 19.1616 10.3408 19.1399C10.2665 19.0966 10.1597 19.0335 10.0252 18.9516C9.75634 18.788 9.37579 18.549 8.92068 18.2425C8.01261 17.6311 6.79708 16.7442 5.57654 15.6458C3.202 13.5087 0.524902 10.3188 0.524902 6.625C0.524902 5.24373 1.00347 3.90512 1.87918 2.83692C2.7549 1.76872 3.97366 1.03692 5.32811 0.766034C6.68256 0.495143 8.08903 0.701895 9.30823 1.35111C9.9538 1.69487 10.5257 2.15145 10.9999 2.69428C11.4741 2.15145 12.046 1.69487 12.6916 1.35111C13.9108 0.701894 15.3172 0.495143 16.6717 0.766034C18.0261 1.03692 19.2449 1.76872 20.1206 2.83692C20.9963 3.90512 21.4749 5.24373 21.4749 6.625C21.4749 10.3188 18.7978 13.5087 16.4233 15.6458C15.2027 16.7442 13.9872 17.6311 13.0791 18.2425C12.624 18.549 12.2435 18.788 11.9746 18.9516C11.8401 19.0335 11.7333 19.0966 11.659 19.1399C11.6218 19.1616 11.5927 19.1783 11.5722 19.19L11.5481 19.2037L11.541 19.2077L11.5388 19.209L11.538 19.2094C11.5376 19.2096 11.5374 19.2098 10.9999 18.25ZM10.9999 18.25L11.5374 19.2098C11.2035 19.3968 10.7964 19.3968 10.4624 19.2098L10.9999 18.25Z" fill="white"/>
</svg>
