<svg width="18" height="18" viewBox="0 0 18 18" fill="none" xmlns="http://www.w3.org/2000/svg">
<path d="M13.0622 3.91634C12.4984 3.91634 12.0413 4.37338 12.0413 4.93717C12.0413 5.50096 12.4984 5.95801 13.0622 5.95801C13.626 5.95801 14.083 5.50096 14.083 4.93717C14.083 4.37338 13.626 3.91634 13.0622 3.91634Z" fill="white"/>
<path fill-rule="evenodd" clip-rule="evenodd" d="M8.99967 4.95801C6.76752 4.95801 4.95801 6.76752 4.95801 8.99967C4.95801 11.2318 6.76752 13.0413 8.99967 13.0413C11.2318 13.0413 13.0413 11.2318 13.0413 8.99967C13.0413 6.76752 11.2318 4.95801 8.99967 4.95801ZM6.79134 8.99967C6.79134 7.78005 7.78005 6.79134 8.99967 6.79134C10.2193 6.79134 11.208 7.78005 11.208 8.99967C11.208 10.2193 10.2193 11.208 8.99967 11.208C7.78005 11.208 6.79134 10.2193 6.79134 8.99967Z" fill="white"/>
<path fill-rule="evenodd" clip-rule="evenodd" d="M5.56217 0.895508C2.98485 0.895508 0.895508 2.98485 0.895508 5.56217V12.4372C0.895508 15.0145 2.98485 17.1038 5.56217 17.1038H12.4372C15.0145 17.1038 17.1038 15.0145 17.1038 12.4372V5.56217C17.1038 2.98485 15.0145 0.895508 12.4372 0.895508H5.56217ZM2.72884 5.56217C2.72884 3.99737 3.99737 2.72884 5.56217 2.72884H12.4372C14.002 2.72884 15.2705 3.99737 15.2705 5.56217V12.4372C15.2705 14.002 14.002 15.2705 12.4372 15.2705H5.56217C3.99737 15.2705 2.72884 14.002 2.72884 12.4372V5.56217Z" fill="white"/>
</svg>
