<svg width="18" height="17" viewBox="0 0 18 17" fill="none" xmlns="http://www.w3.org/2000/svg">
<path d="M17.6165 3.26628C17.5456 3.0949 17.4254 2.94841 17.2711 2.84536C17.1169 2.74231 16.9356 2.68733 16.7501 2.68737H14.5485C14.1785 2.1178 13.6734 1.64857 13.0781 1.32143C12.4829 0.994302 11.816 0.819424 11.1368 0.81237C10.6069 0.805255 10.0809 0.904233 9.58988 1.10348C9.09881 1.30272 8.65257 1.5982 8.27744 1.97253C7.89167 2.35087 7.58547 2.80255 7.37684 3.30098C7.16821 3.79941 7.06136 4.33454 7.06259 4.87487V4.93581C4.18525 4.0319 1.87666 1.74049 1.85166 1.71471C1.72587 1.58794 1.56648 1.49974 1.39226 1.46049C1.21804 1.42123 1.03623 1.43256 0.868226 1.49313C0.700223 1.5537 0.553015 1.66099 0.443924 1.80239C0.334833 1.94379 0.268399 2.1134 0.252439 2.29128C-0.24053 7.77331 2.17822 10.7124 3.53838 11.91C2.40635 13.0647 0.812595 13.678 0.79697 13.6842C0.664458 13.7336 0.54482 13.8122 0.447012 13.9143C0.349203 14.0164 0.275757 14.1394 0.232173 14.2739C0.188589 14.4084 0.175995 14.551 0.195334 14.6911C0.214672 14.8311 0.265443 14.965 0.343845 15.0827C0.500095 15.3085 1.39385 16.4374 4.25009 16.4374C9.89463 16.4374 14.6173 12.1202 15.1563 6.5444L17.4126 4.28815C17.5439 4.1571 17.6333 3.99005 17.6696 3.80815C17.7059 3.62625 17.6874 3.43767 17.6165 3.26628ZM13.5876 5.46237C13.426 5.62328 13.329 5.83787 13.3149 6.0655C13.011 10.8303 9.02978 14.5624 4.25009 14.5624C3.9238 14.5643 3.59777 14.5436 3.27431 14.5007C4.09385 13.9803 5.00947 13.2397 5.65634 12.2702C5.72711 12.1641 5.77546 12.0446 5.79846 11.9191C5.82146 11.7937 5.8186 11.6648 5.79008 11.5405C5.76156 11.4162 5.70797 11.299 5.63258 11.1961C5.55719 11.0932 5.4616 11.0067 5.35166 10.9421C5.34228 10.9366 4.38838 10.3569 3.52119 9.03425C2.654 7.71159 2.17275 6.14362 2.079 4.36393C3.41963 5.37487 5.50009 6.65534 7.84384 7.04987C7.97833 7.0726 8.11615 7.06572 8.24769 7.0297C8.37924 6.99367 8.50134 6.92939 8.60548 6.84131C8.70962 6.75324 8.79329 6.64351 8.85065 6.51977C8.90801 6.39603 8.93768 6.26126 8.93759 6.12487V4.87487C8.93693 4.58289 8.99471 4.29374 9.10756 4.02445C9.2204 3.75516 9.38601 3.51118 9.59463 3.3069C9.79386 3.10761 10.0309 2.95014 10.2919 2.84375C10.5528 2.73736 10.8324 2.68419 11.1142 2.68737C11.5402 2.69307 11.9558 2.81949 12.3129 3.05195C12.6699 3.28441 12.9537 3.61337 13.1313 4.00065C13.2044 4.16771 13.3247 4.30983 13.4773 4.4096C13.6299 4.50938 13.8084 4.56246 13.9907 4.56237H14.4845L13.5876 5.46237Z" fill="white"/>
</svg>
