<svg width="94" height="32" viewBox="0 0 94 32" fill="none" xmlns="http://www.w3.org/2000/svg">
<g clip-path="url(#clip0_4426_646)">
<path d="M25.8649 1.4731C25.5122 1.22149 24.9574 1.2645 24.6477 1.55052L22.6348 3.40428C22.3101 3.69891 22.3359 4.14837 22.68 4.40643C22.68 4.40643 25.8069 6.69031 25.8133 11.6215C25.8176 16.3011 22.5337 18.9957 22.5337 18.9957C22.2004 19.2688 22.1854 19.7312 22.4993 20.0215L24.5079 21.8451C24.8241 22.1376 25.3767 22.172 25.7316 21.9312C25.7316 21.9312 30.4413 18.714 30.4348 11.6365C30.4284 4.60213 25.8649 1.4731 25.8649 1.4731Z" fill="#FF3D00"/>
<path d="M47.2004 9.03658C46.8197 8.22582 46.0197 7.61937 44.8176 7.62152C43.609 7.62152 42.8133 8.23013 42.4413 9.04088C42.2111 9.53765 42.1316 9.90539 42.1036 10.5032L47.523 10.4989C47.4993 9.90109 47.4197 9.5312 47.2004 9.03658ZM42.4735 12.8344C42.4735 12.8344 42.1187 12.8065 42.1187 13.0882C42.1187 14.7204 43.3316 15.8774 45.2348 15.8753C46.6456 15.8753 47.2456 15.5334 48.1058 14.8882C48.3036 14.742 48.5165 14.6022 48.6735 14.7764C48.781 14.9011 50.2907 16.2796 50.2907 16.2796C50.48 16.4538 50.4284 16.6624 50.2305 16.8366C50.0198 17.0065 47.7832 18.7506 45.209 18.7527C41.8391 18.7549 38.6068 17.2882 38.6025 11.7613C38.5982 7.30539 41.1101 4.78926 44.8133 4.78711C48.7832 4.78281 51.037 7.55701 51.0391 11.3075V12.2559C51.0391 12.6409 50.723 12.8215 50.4628 12.8237L42.4714 12.8323L42.4735 12.8344Z" fill="#002EFF"/>
<path d="M82.3184 9.00215C81.9399 8.1914 81.1442 7.58495 79.9377 7.5871C78.7313 7.5871 77.9377 8.1957 77.5528 9.00645C77.3377 9.50323 77.2495 9.87097 77.228 10.4688L82.656 10.4645C82.6216 9.86667 82.5356 9.49678 82.3162 9.00215M77.5872 12.8C77.5872 12.8 77.2431 12.772 77.2431 13.0538C77.2431 14.686 78.4538 15.843 80.3549 15.8409C81.77 15.8409 82.3635 15.4989 83.228 14.8538C83.4173 14.7075 83.6345 14.5677 83.7958 14.7419C83.9162 14.8667 85.4151 16.2452 85.4151 16.2452C85.6022 16.4194 85.542 16.628 85.3442 16.8022C85.142 16.972 82.899 18.7161 80.327 18.7183C76.9549 18.7226 73.727 17.2538 73.7227 11.7269C73.7184 7.27097 76.2302 4.75484 79.9334 4.75269C83.9055 4.74839 86.1549 7.52258 86.1592 11.2731V12.2215C86.1592 12.6065 85.8452 12.7893 85.5893 12.7893L77.5872 12.7979V12.8Z" fill="#002EFF"/>
<path d="M61.2836 18.5785C61.0191 18.5785 60.8105 18.3742 60.8105 18.114L60.804 10.7979C60.804 9.59785 60.5115 7.84517 58.4427 7.84517C57.3223 7.84517 56.0642 8.46882 56.0664 10.329L56.0728 18.1161C56.0728 18.3763 55.8578 18.5806 55.5954 18.5806H52.9825C52.7158 18.5828 52.5051 18.3785 52.5051 18.1183L52.4922 5.40431C52.4922 5.15054 52.7029 4.93119 52.9696 4.93119H55.5051C55.7632 4.92904 55.9782 5.14624 55.9804 5.4V5.71828C55.9804 5.97635 56.1567 6.07312 56.3761 5.94409C56.3761 5.94409 57.6621 4.77205 59.5352 4.7699C60.9567 4.7699 62.1158 5.21291 62.9094 5.9742C64.0664 7.07097 64.3653 8.35269 64.3675 9.84516L64.3761 18.1032C64.3761 18.3634 64.161 18.5677 63.9008 18.5677" fill="#002EFF"/>
<path d="M69.837 5.32903H71.9036C72.1595 5.32688 72.3724 5.52903 72.3724 5.78494V7.87527C72.3746 8.13333 72.1638 8.34193 71.9058 8.34193H70.3208C70.0649 8.34193 69.8542 8.55914 69.8542 8.81075L69.8585 13.9935C69.8585 14.2559 69.923 14.6667 70.0004 14.914C70.0004 14.914 70.2477 15.6989 71.095 15.6989H71.9122C72.1681 15.6989 72.381 15.9075 72.381 16.1613V18.1075C72.3832 18.3677 72.1724 18.572 71.9144 18.572H70.4413C67.5359 18.5763 66.6047 16.6151 66.6026 14.671L66.5961 8.38709V7.44516L66.5939 5.79139V4.84946L66.5918 3.10967C66.5918 2.84946 66.7982 2.64516 67.0606 2.64516H69.3875C69.6391 2.64301 69.8327 2.84731 69.8327 3.10752" fill="#002EFF"/>
<path d="M91.4555 18.5505C88.5244 18.5527 87.591 16.5936 87.5889 14.6495L87.5781 3.09463C87.5781 2.83011 87.7867 2.62581 88.0426 2.62581H90.3717C90.6276 2.62366 90.834 2.82796 90.834 3.09248L90.8448 13.9742C90.8448 14.2366 90.9072 14.6473 90.976 14.8968C90.976 14.8968 91.1996 15.6796 92.1029 15.6774H93.0018C93.2641 15.6774 93.4792 15.886 93.4792 16.1398V18.086C93.4814 18.3462 93.2685 18.5505 93.0039 18.5505" fill="#002EFF"/>
<path d="M14.1269 6.9656C13.4946 5.63657 12.1871 4.64087 10.2108 4.64302C8.22366 4.64302 6.92474 5.64302 6.30108 6.9742C5.93549 7.79786 5.80646 8.39786 5.76345 9.38495L14.6688 9.37635C14.6215 8.3914 14.486 7.78925 14.1269 6.96775M6.35915 13.2129C6.35915 13.2129 5.7742 13.1548 5.7742 13.6323C5.77635 16.2989 7.7742 18.2 10.8946 18.1979C13.2172 18.1957 14.2065 17.643 15.6086 16.5914C15.9398 16.3419 16.2774 16.1183 16.5548 16.4043C16.7333 16.6022 19.1957 18.8731 19.1957 18.8731C19.5075 19.1613 19.4237 19.5097 19.086 19.7871C18.757 20.0602 15.0839 22.929 10.8645 22.9333C5.32259 22.9376 0.00860969 20.5355 7.53797e-06 11.4559C-0.00644407 4.13979 4.12904 0.00645846 10.2065 6.84505e-06C16.7269 -0.00644477 20.4215 4.54839 20.428 10.7054V12.2645C20.428 12.8925 19.9161 13.2 19.4903 13.2L6.357 13.2129H6.35915Z" fill="#002EFF"/>
<path d="M44.0039 25.9247V26.3462C44.0039 26.4344 43.9609 26.4774 43.8727 26.4774L39.6168 26.4817C39.5824 26.4817 39.563 26.4989 39.563 26.5333C39.5802 27.0172 39.6082 27.329 39.6426 27.4688C39.7394 27.8645 39.9458 28.1763 40.2641 28.4043C40.5802 28.6322 40.9845 28.7462 41.477 28.7462C41.8469 28.7462 42.1695 28.6623 42.4512 28.4946C42.7307 28.3269 42.9523 28.0903 43.1092 27.7828C43.1609 27.7032 43.2232 27.686 43.2942 27.729L43.8082 28.0322C43.8791 28.0774 43.8963 28.1376 43.8619 28.2172C43.6426 28.6387 43.3135 28.972 42.8748 29.2129C42.4361 29.4559 41.9308 29.5763 41.3609 29.5763C40.7372 29.5677 40.2146 29.4193 39.7931 29.129C39.3716 28.8387 39.0662 28.4365 38.8813 27.9183C38.7221 27.4968 38.6426 26.8903 38.6426 26.0989C38.6426 25.729 38.649 25.4301 38.6619 25.1957C38.6748 24.9634 38.7071 24.7548 38.7609 24.5699C38.9092 23.9978 39.2103 23.5419 39.6619 23.1978C40.1135 22.8537 40.6598 22.6839 41.3006 22.6817C42.1006 22.6817 42.7157 22.8817 43.1458 23.286C43.5759 23.6903 43.8447 24.2602 43.9523 24.9978C43.9867 25.243 44.0039 25.5505 44.006 25.9204M40.2275 23.8365C39.9415 24.0602 39.7566 24.3613 39.6684 24.7398C39.6168 24.9247 39.5824 25.2236 39.5652 25.6365C39.5652 25.6709 39.5824 25.6882 39.6189 25.6882L43.0318 25.6839C43.0662 25.6839 43.0856 25.6666 43.0856 25.6322C43.0684 25.2365 43.0404 24.9548 43.006 24.7892C42.9092 24.3935 42.7135 24.0796 42.4189 23.8473C42.1243 23.615 41.7523 23.4989 41.3049 23.4989C40.8748 23.4989 40.5157 23.6129 40.2318 23.8365" fill="#002EFF"/>
<path d="M54.1696 23.2796C54.5524 23.6753 54.7438 24.2151 54.7438 24.8989L54.7481 29.314C54.7481 29.4022 54.703 29.4452 54.6169 29.4452H53.9567C53.8686 29.4452 53.8255 29.4022 53.8255 29.314L53.8212 25.0839C53.8212 24.6 53.6815 24.2172 53.4062 23.9312C53.1288 23.6452 52.7653 23.5032 52.318 23.5032C51.8514 23.5032 51.4772 23.6452 51.1911 23.9269C50.9051 24.2086 50.7632 24.5871 50.7632 25.0602L50.7675 29.3161C50.7675 29.4043 50.7223 29.4473 50.6363 29.4473H49.9653C49.8772 29.4473 49.8341 29.4043 49.8341 29.3161L49.8298 25.086C49.8298 24.6043 49.6922 24.2194 49.4212 23.9333C49.1481 23.6473 48.7825 23.5054 48.3266 23.5054C47.86 23.5054 47.4901 23.6473 47.2148 23.929C46.9374 24.2108 46.7997 24.5893 46.7997 25.0624L46.804 29.3183C46.804 29.4065 46.7589 29.4495 46.6729 29.4495H46.0019C45.9137 29.4495 45.8707 29.4065 45.8707 29.3183L45.8643 22.914C45.8643 22.8258 45.9073 22.7828 45.9954 22.7828H46.6664C46.7546 22.7828 46.7976 22.8258 46.7976 22.914V23.4409C46.7976 23.4581 46.804 23.4688 46.8169 23.4731C46.8298 23.4774 46.8449 23.4731 46.8621 23.4538C47.0557 23.1979 47.303 23.0065 47.6062 22.8796C47.9094 22.7527 48.2449 22.6882 48.6148 22.6882C49.0707 22.6882 49.4621 22.7785 49.789 22.9635C50.1137 23.1484 50.361 23.4151 50.5288 23.7678C50.546 23.8108 50.5675 23.8108 50.5933 23.7678C50.7868 23.4065 51.0578 23.1376 51.4105 22.957C51.761 22.7764 52.161 22.686 52.6083 22.686C53.2686 22.686 53.789 22.8817 54.1718 23.2774" fill="#002EFF"/>
<path d="M62.1376 26.1054C62.1376 26.8086 62.0817 27.3527 61.9677 27.7398C61.8107 28.3032 61.5225 28.7441 61.1053 29.0645C60.6881 29.385 60.1634 29.5463 59.5311 29.5463C59.1871 29.5463 58.8709 29.4796 58.5827 29.342C58.2924 29.2065 58.0516 29.0108 57.858 28.757C57.8408 28.7398 57.8258 28.7334 57.8129 28.7377C57.7999 28.742 57.7935 28.7527 57.7935 28.7699V31.8667C57.7978 31.9549 57.7526 31.9979 57.6645 31.9979H56.9914C56.9032 31.9979 56.8602 31.9549 56.8602 31.8667L56.8516 22.9054C56.8516 22.8172 56.8946 22.7742 56.9827 22.7742H57.6559C57.744 22.7742 57.787 22.8172 57.787 22.9054V23.4581C57.787 23.4753 57.7935 23.486 57.8064 23.4903C57.8193 23.4946 57.8344 23.4903 57.8537 23.471C58.0473 23.2172 58.286 23.0194 58.572 22.8774C58.858 22.7377 59.1763 22.6667 59.5268 22.6667C60.1419 22.6667 60.658 22.8237 61.0752 23.1398C61.4924 23.4559 61.7806 23.886 61.9397 24.4301C62.0709 24.8516 62.1376 25.4086 62.1397 26.1032M61.1182 27.1118C61.1677 26.871 61.1914 26.5334 61.1914 26.1032C61.1914 25.6903 61.172 25.3678 61.1376 25.1355C61.1032 24.9032 61.0408 24.6946 60.9526 24.5097C60.8473 24.1936 60.6602 23.9441 60.3914 23.7592C60.1225 23.5742 59.8043 23.4817 59.4365 23.4839C59.086 23.4839 58.7914 23.5764 58.5548 23.7613C58.3182 23.9463 58.1419 24.1914 58.0279 24.4989C57.9483 24.6753 57.8924 24.8817 57.8559 25.1183C57.8215 25.3549 57.8043 25.686 57.8043 26.1075C57.8043 26.5291 57.8236 26.8602 57.858 27.1032C57.8946 27.3441 57.9548 27.557 58.043 27.742C58.1483 28.0409 58.3225 28.2796 58.5655 28.4602C58.8064 28.6409 59.0946 28.7291 59.4279 28.7291C59.7784 28.7291 60.0838 28.6409 60.344 28.4645C60.6021 28.2882 60.7892 28.0559 60.9032 27.7656C61 27.5721 61.0709 27.3549 61.1204 27.114" fill="#002EFF"/>
<path d="M67.4729 22.8709C67.5439 22.9054 67.5697 22.9634 67.5525 23.043L67.4084 23.6881C67.3826 23.7763 67.3245 23.8021 67.2363 23.7677C67.0879 23.7054 66.9159 23.6752 66.7224 23.6752L66.5503 23.6881C66.0922 23.7054 65.7159 23.8752 65.417 24.1957C65.118 24.5161 64.9697 24.9226 64.9697 25.415L64.974 29.3032C64.974 29.3914 64.9288 29.4344 64.8428 29.4344H64.1718C64.0836 29.4344 64.0406 29.3914 64.0406 29.3032L64.0342 22.8989C64.0342 22.8107 64.0772 22.7677 64.1654 22.7677H64.8363C64.9245 22.7677 64.9675 22.8107 64.9675 22.8989V23.7032C64.9675 23.729 64.9761 23.7462 64.9869 23.7505C64.9998 23.7548 65.0105 23.7484 65.0213 23.7312C65.2041 23.4064 65.4406 23.1527 65.7245 22.972C66.0105 22.7914 66.3417 22.701 66.7202 22.701C67.0105 22.701 67.26 22.757 67.4707 22.8709" fill="#002EFF"/>
<path d="M73.9058 25.8946V26.3161C73.9058 26.4043 73.8628 26.4473 73.7746 26.4473L69.5187 26.4516C69.4843 26.4516 69.4671 26.4688 69.4671 26.5032C69.4843 26.9871 69.5123 27.2989 69.5467 27.4387C69.6435 27.8344 69.8499 28.1462 70.1682 28.3742C70.4843 28.6021 70.8886 28.7161 71.3811 28.7161C71.751 28.7161 72.0757 28.6323 72.3553 28.4645C72.637 28.2968 72.8564 28.0602 73.0133 27.7527C73.065 27.6731 73.1273 27.6559 73.1983 27.6989L73.7123 28.0021C73.7832 28.0473 73.8004 28.1075 73.766 28.1871C73.5467 28.6086 73.2176 28.9419 72.7789 29.1828C72.3402 29.4258 71.8349 29.5462 71.265 29.5462C70.6413 29.5376 70.1187 29.3892 69.6972 29.0989C69.2757 28.8086 68.9703 28.4064 68.7875 27.8882C68.6284 27.4667 68.5488 26.8602 68.5488 26.0688C68.5488 25.6989 68.5553 25.4 68.5682 25.1656C68.5811 24.9333 68.6133 24.7247 68.6671 24.5398C68.8155 23.9677 69.1166 23.5118 69.5682 23.1677C70.0198 22.8237 70.566 22.6538 71.209 22.6516C72.009 22.6516 72.6241 22.8516 73.0542 23.2559C73.4843 23.6602 73.7531 24.2301 73.8585 24.9677C73.8929 25.2129 73.9123 25.5204 73.9123 25.8903M70.1359 23.8043C69.8499 24.028 69.6628 24.329 69.5768 24.7075C69.5252 24.8925 69.4886 25.1914 69.4714 25.6043C69.4714 25.6387 69.4886 25.6559 69.5252 25.6559L72.9381 25.6516C72.9725 25.6516 72.9918 25.6344 72.9918 25.6C72.9746 25.2043 72.9467 24.9247 72.9123 24.757C72.8155 24.3613 72.6198 24.0473 72.3252 23.8151C72.0305 23.5828 71.6585 23.4667 71.2112 23.4667C70.7811 23.4667 70.4219 23.5806 70.1381 23.8043" fill="#002EFF"/>
<path d="M76.6428 29.2538C76.26 29.0968 75.9653 28.886 75.7589 28.6215C75.5524 28.357 75.4492 28.0645 75.4492 27.7376V27.5806C75.4492 27.4925 75.4922 27.4495 75.5804 27.4495H76.2127C76.3008 27.4495 76.3438 27.4925 76.3438 27.5806V27.686C76.3438 27.9763 76.4965 28.228 76.7998 28.443C77.103 28.6581 77.4836 28.7656 77.9395 28.7656C78.3955 28.7656 78.7654 28.6624 79.0471 28.4538C79.3288 28.2473 79.4686 27.9849 79.4686 27.6688C79.4686 27.4495 79.3955 27.2688 79.2492 27.129C79.103 26.9892 78.9331 26.8796 78.7352 26.8C78.5374 26.7204 78.232 26.6215 77.8191 26.4968C77.3266 26.357 76.9223 26.2172 76.6062 26.0753C76.2901 25.9355 76.0234 25.7398 75.8084 25.4903C75.5933 25.2409 75.4858 24.9226 75.4836 24.5355C75.4836 23.9742 75.703 23.5247 76.1417 23.1914C76.5804 22.8581 77.161 22.6903 77.8815 22.6882C78.3653 22.6882 78.7933 22.7656 79.1675 22.9247C79.5417 23.0817 79.8277 23.2989 80.032 23.5763C80.2342 23.8538 80.3352 24.1634 80.3352 24.5054V24.5441C80.3352 24.6323 80.2922 24.6753 80.2041 24.6753H79.5847C79.4965 24.6753 79.4535 24.6323 79.4535 24.5441V24.5054C79.4535 24.2065 79.3094 23.957 79.0234 23.7548C78.7374 23.5527 78.3524 23.4516 77.8707 23.4538C77.4234 23.4538 77.0621 23.5441 76.7912 23.7247C76.518 23.9054 76.3826 24.1527 76.3826 24.471C76.3826 24.7699 76.5137 24.9978 76.7782 25.1548C77.0428 25.3118 77.4514 25.471 78.0041 25.628C78.5137 25.7763 78.9266 25.9183 79.2428 26.0495C79.5589 26.1806 79.832 26.372 80.06 26.6215C80.2879 26.871 80.4019 27.2 80.4041 27.6022C80.4041 28.1742 80.1804 28.6301 79.7331 28.9742C79.2858 29.3161 78.6922 29.4903 77.9546 29.4903C77.4621 29.4903 77.0256 29.4129 76.6428 29.2538Z" fill="#002EFF"/>
<path d="M86.2389 23.2473C86.669 23.6516 86.8862 24.1871 86.8862 24.8538L86.8905 29.2817C86.8905 29.3699 86.8453 29.4129 86.7593 29.4129H86.0883C86.0001 29.4129 85.9571 29.3699 85.9571 29.2817V28.7419C85.9571 28.7247 85.9507 28.7118 85.9356 28.7032C85.9227 28.6946 85.9077 28.6989 85.8905 28.7161C85.6711 28.9806 85.3851 29.1806 85.0345 29.3161C84.684 29.4516 84.2926 29.5204 83.8625 29.5226C83.2388 29.5226 82.7163 29.3656 82.2926 29.0495C81.8711 28.7333 81.6604 28.2516 81.6582 27.6C81.6582 26.9398 81.8969 26.4193 82.3743 26.0366C82.8539 25.6538 83.5184 25.4624 84.37 25.4624H85.8991C85.9335 25.4624 85.9528 25.443 85.9528 25.4086V24.9075C85.9528 24.4602 85.8259 24.1054 85.5765 23.8473C85.3249 23.5892 84.9378 23.4602 84.4087 23.4602C83.9872 23.4602 83.6453 23.5419 83.3808 23.7054C83.1184 23.8688 82.955 24.0946 82.8948 24.3849C82.869 24.4731 82.8152 24.5118 82.7378 24.5032L82.0259 24.4107C81.9292 24.3935 81.8905 24.3591 81.9077 24.3054C81.9765 23.8129 82.241 23.4129 82.6969 23.1054C83.1528 22.7978 83.7249 22.643 84.4087 22.643C85.2001 22.643 85.8109 22.843 86.241 23.2473M85.3894 28.329C85.7657 28.0688 85.955 27.7204 85.955 27.2796V26.2516C85.955 26.2172 85.9356 26.2 85.9012 26.2H84.5184C83.9378 26.2 83.4733 26.3204 83.1227 26.5591C82.7722 26.7957 82.5958 27.1269 82.5958 27.5484C82.5958 27.9355 82.7292 28.2258 82.998 28.4237C83.2668 28.6215 83.6152 28.7204 84.0453 28.7183C84.5636 28.7183 85.0109 28.5871 85.3894 28.329Z" fill="#002EFF"/>
<path d="M89.716 29.2409C89.3332 29.0839 89.0386 28.8731 88.8321 28.6086C88.6257 28.3462 88.5225 28.0516 88.5225 27.7269V27.5699C88.5225 27.4817 88.5655 27.4387 88.6536 27.4387H89.2859C89.3741 27.4387 89.4171 27.4817 89.4192 27.5699V27.6753C89.4192 27.9656 89.5719 28.2172 89.8752 28.4323C90.1784 28.6473 90.559 28.7549 91.0149 28.7549C91.4708 28.7549 91.8407 28.6516 92.1225 28.443C92.4042 28.2366 92.544 27.9742 92.544 27.6581C92.544 27.4387 92.4708 27.2581 92.3246 27.1183C92.1784 26.9785 92.0085 26.8688 91.8106 26.7893C91.6128 26.7097 91.3074 26.6108 90.8945 26.486C90.402 26.3462 89.9977 26.2065 89.6816 26.0645C89.3655 25.9247 89.0988 25.729 88.8837 25.4796C88.6687 25.2301 88.5612 24.9118 88.559 24.5247C88.559 23.9635 88.7784 23.514 89.2171 23.1807C89.6558 22.8473 90.2364 22.6796 90.9569 22.6774C91.4386 22.6774 91.8687 22.7548 92.2407 22.914C92.6149 23.071 92.9031 23.2882 93.1053 23.5656C93.3074 23.843 93.4085 24.1527 93.4085 24.4946V24.5333C93.4085 24.6215 93.3655 24.6645 93.2773 24.6645H92.6579C92.5698 24.6645 92.5268 24.6215 92.5268 24.5333V24.4946C92.5268 24.1957 92.3827 23.9462 92.0967 23.7441C91.8106 23.5419 91.4257 23.4409 90.944 23.4409C90.4967 23.4409 90.1354 23.5312 89.8644 23.7118C89.5913 23.8925 89.4558 24.1398 89.4558 24.4581C89.4558 24.757 89.587 24.985 89.8515 25.1419C90.1139 25.2989 90.5246 25.4581 91.0773 25.6151C91.587 25.7635 91.9999 25.9032 92.316 26.0366C92.6321 26.1678 92.9053 26.3592 93.1332 26.6086C93.3612 26.8581 93.4752 27.1871 93.4773 27.5914C93.4773 28.1635 93.2536 28.6194 92.8063 28.9635C92.359 29.3075 91.7655 29.4796 91.0278 29.4796C90.5354 29.4796 90.0988 29.4022 89.716 29.243" fill="#002EFF"/>
</g>
<defs>
<clipPath id="clip0_4426_646">
<rect width="93.4839" height="32" fill="white"/>
</clipPath>
</defs>
</svg>
